<svg xmlns="http://www.w3.org/2000/svg" version="1.1" xmlns:xlink="http://www.w3.org/1999/xlink" xmlns:svgjs="http://svgjs.dev/svgjs" viewBox="0 0 14.705094125196046 14.933428734071741"><g transform="matrix(1,0,0,1,1.2348944747073984,11.734621759364344)"><g><path d=" M 0.7635000000000001 0.7590000000000001 L 0.9075 1.068 L 1.053 1.068 L 0.5640000000000001 0.018000000000000016 L 0.489 0.018000000000000016 L 0.045 1.068 L 0.114 1.068 L 0.246 0.7590000000000001 L 0.7635000000000001 0.7590000000000001 M 0.732 0.6915 L 0.2745 0.6915 L 0.4905 0.18600000000000005 L 0.4965 0.18600000000000005 L 0.732 0.6915 M 1.0214663085937499 0.018000000000000016 L 1.39346630859375 1.068 L 1.48346630859375 1.068 L 1.7699663085937498 0.24750000000000005 L 1.77746630859375 0.24750000000000005 L 2.05496630859375 1.068 L 2.1434663085937498 1.068 L 2.5154663085937496 0.018000000000000016 L 2.4464663085937497 0.018000000000000016 L 2.13596630859375 0.894 L 2.12996630859375 0.894 L 1.83746630859375 0.018000000000000016 L 1.77296630859375 0.018000000000000016 L 1.47446630859375 0.8895000000000001 L 1.46846630859375 0.8895000000000001 L 1.15946630859375 0.018000000000000016 L 1.0214663085937499 0.018000000000000016 M 2.6144201660156248 0.8025 Q 2.617420166015625 0.867 2.6481701660156247 0.9195000000000001 Q 2.678920166015625 0.9720000000000001 2.732170166015625 1.00875 Q 2.785420166015625 1.0455 2.8574201660156247 1.06575 Q 2.9294201660156247 1.086 3.014920166015625 1.086 Q 3.101920166015625 1.086 3.171670166015625 1.0650000000000002 Q 3.241420166015625 1.044 3.290920166015625 1.0050000000000001 Q 3.3404201660156247 0.9660000000000001 3.367420166015625 0.9105000000000001 Q 3.394420166015625 0.8550000000000001 3.394420166015625 0.7875000000000001 Q 3.394420166015625 0.6945000000000001 3.347920166015625 0.6352500000000001 Q 3.301420166015625 0.5760000000000001 3.2316701660156246 0.53625 Q 3.1619201660156246 0.49650000000000005 3.080170166015625 0.46950000000000003 Q 2.9984201660156247 0.4425 2.9286701660156247 0.4125000000000001 Q 2.8589201660156247 0.38250000000000006 2.8124201660156247 0.3435 Q 2.7659201660156247 0.3045 2.7659201660156247 0.24 Q 2.7659201660156247 0.20400000000000007 2.781670166015625 0.1725 Q 2.797420166015625 0.14100000000000001 2.828170166015625 0.11775000000000002 Q 2.8589201660156247 0.09450000000000003 2.903920166015625 0.08025000000000004 Q 2.948920166015625 0.06600000000000006 3.007420166015625 0.06600000000000006 Q 3.104920166015625 0.06600000000000006 3.173170166015625 0.10725000000000007 Q 3.241420166015625 0.14850000000000008 3.253420166015625 0.237 L 3.355420166015625 0.237 Q 3.346420166015625 0.1815 3.314920166015625 0.1372500000000001 Q 3.283420166015625 0.09300000000000008 3.2354201660156248 0.06225000000000014 Q 3.1874201660156247 0.031500000000000083 3.126670166015625 0.01574999999999993 Q 3.065920166015625 0 2.9999201660156247 0 Q 2.9309201660156248 0 2.868670166015625 0.018000000000000016 Q 2.806420166015625 0.03600000000000003 2.759170166015625 0.07050000000000001 Q 2.711920166015625 0.1050000000000001 2.6841701660156247 0.15750000000000008 Q 2.656420166015625 0.21000000000000008 2.656420166015625 0.2775000000000001 Q 2.656420166015625 0.366 2.701420166015625 0.42000000000000004 Q 2.746420166015625 0.4740000000000001 2.814670166015625 0.51 Q 2.8829201660156247 0.546 2.962420166015625 0.5715000000000001 Q 3.041920166015625 0.597 3.110170166015625 0.6292500000000001 Q 3.178420166015625 0.6615 3.2234201660156248 0.7080000000000001 Q 3.268420166015625 0.7545000000000001 3.268420166015625 0.8325 Q 3.268420166015625 0.93 3.197170166015625 0.9750000000000001 Q 3.125920166015625 1.02 3.007420166015625 1.02 Q 2.912920166015625 1.02 2.855920166015625 0.9952500000000001 Q 2.798920166015625 0.9705 2.768920166015625 0.936 Q 2.738920166015625 0.9015000000000001 2.728420166015625 0.86475 Q 2.7179201660156247 0.8280000000000001 2.716420166015625 0.8025 L 2.6144201660156248 0.8025 M 3.569920166015625 0.543 Q 3.569920166015625 0.627 3.602170166015625 0.7222500000000001 Q 3.634420166015625 0.8175000000000001 3.7034201660156247 0.8985000000000001 Q 3.7724201660156247 0.9795 3.8789201660156247 1.03275 Q 3.9854201660156248 1.086 4.133920166015625 1.086 Q 4.234420166015624 1.086 4.316170166015625 1.06125 Q 4.397920166015625 1.0365 4.463170166015625 0.9945 Q 4.528420166015625 0.9525 4.576420166015625 0.89775 Q 4.624420166015625 0.8430000000000001 4.655170166015624 0.7822500000000001 Q 4.685920166015625 0.7215 4.701670166015624 0.66 Q 4.717420166015625 0.5985 4.717420166015625 0.543 Q 4.717420166015625 0.4590000000000001 4.6829201660156246 0.36375 Q 4.648420166015625 0.26850000000000007 4.576420166015625 0.1875 Q 4.504420166015625 0.10650000000000004 4.394170166015625 0.05325000000000002 Q 4.2839201660156245 0 4.133920166015625 0 Q 3.9854201660156248 0 3.8789201660156247 0.05249999999999999 Q 3.7724201660156247 0.1050000000000001 3.7034201660156247 0.18525000000000003 Q 3.634420166015625 0.26550000000000007 3.602170166015625 0.36150000000000004 Q 3.569920166015625 0.4575 3.569920166015625 0.543 M 3.716920166015625 0.543 Q 3.716920166015625 0.43800000000000006 3.7491701660156247 0.35025000000000006 Q 3.781420166015625 0.26250000000000007 3.837670166015625 0.1995 Q 3.893920166015625 0.13650000000000007 3.970420166015625 0.10125000000000006 Q 4.046920166015624 0.06600000000000006 4.136920166015625 0.06600000000000006 Q 4.225420166015625 0.06600000000000006 4.304170166015625 0.10125000000000006 Q 4.382920166015625 0.13650000000000007 4.442170166015625 0.1995 Q 4.501420166015625 0.26250000000000007 4.535920166015625 0.35025000000000006 Q 4.570420166015625 0.43800000000000006 4.570420166015625 0.543 Q 4.570420166015625 0.6480000000000001 4.535920166015625 0.7357500000000001 Q 4.501420166015625 0.8235000000000001 4.442170166015625 0.8865000000000001 Q 4.382920166015625 0.9495 4.304170166015625 0.98475 Q 4.225420166015625 1.02 4.136920166015625 1.02 Q 4.046920166015624 1.02 3.970420166015625 0.98475 Q 3.893920166015625 0.9495 3.837670166015625 0.8865000000000001 Q 3.781420166015625 0.8235000000000001 3.7491701660156247 0.7357500000000001 Q 3.716920166015625 0.6480000000000001 3.716920166015625 0.543 M 5.072905517578125 0.018000000000000016 L 4.9709055175781245 0.018000000000000016 L 4.9709055175781245 1.068 L 5.036905517578125 1.068 L 5.036905517578125 0.21150000000000002 L 5.0429055175781246 0.21150000000000002 L 5.506405517578125 1.086 L 5.5334055175781245 1.086 L 6.007405517578125 0.21750000000000003 L 6.013405517578125 0.21750000000000003 L 6.013405517578125 1.068 L 6.149905517578125 1.068 L 6.149905517578125 0.018000000000000016 L 6.046405517578124 0.018000000000000016 L 5.560405517578125 0.9195000000000001 L 5.554405517578125 0.9195000000000001 L 5.072905517578125 0.018000000000000016 M 6.508406982421874 0.018000000000000016 L 6.508406982421874 1.068 L 7.186406982421874 1.068 L 7.186406982421874 0.9855 L 6.644906982421874 0.9855 L 6.644906982421874 0.546 L 7.109906982421875 0.546 L 7.109906982421875 0.4770000000000001 L 6.644906982421874 0.4770000000000001 L 6.644906982421874 0.10050000000000003 L 7.186406982421874 0.10050000000000003 L 7.186406982421874 0.018000000000000016 L 6.508406982421874 0.018000000000000016 M 8.816854980468749 0.8745 Q 8.66385498046875 1.0185 8.45385498046875 1.0185 Q 8.33685498046875 1.0185 8.246854980468749 0.9780000000000001 Q 8.156854980468749 0.9375 8.09685498046875 0.8700000000000001 Q 8.03685498046875 0.8025 8.00610498046875 0.7140000000000001 Q 7.97535498046875 0.6255000000000001 7.97535498046875 0.5295000000000001 Q 7.97535498046875 0.4275000000000001 8.00760498046875 0.34275 Q 8.03985498046875 0.258 8.09835498046875 0.1965 Q 8.156854980468749 0.135 8.23710498046875 0.10050000000000003 Q 8.31735498046875 0.06600000000000006 8.41185498046875 0.06600000000000006 Q 8.47635498046875 0.06600000000000006 8.529604980468749 0.08100000000000007 Q 8.582854980468749 0.09600000000000009 8.624104980468749 0.12 Q 8.66535498046875 0.14400000000000002 8.69160498046875 0.17475000000000007 Q 8.717854980468749 0.20550000000000002 8.72835498046875 0.237 L 8.83935498046875 0.237 Q 8.816854980468749 0.18600000000000005 8.78160498046875 0.14250000000000007 Q 8.74635498046875 0.09900000000000009 8.69385498046875 0.06750000000000012 Q 8.64135498046875 0.03600000000000003 8.57085498046875 0.018000000000000016 Q 8.50035498046875 0 8.41035498046875 0 Q 8.27985498046875 0 8.17260498046875 0.03750000000000009 Q 8.065354980468749 0.07500000000000007 7.98885498046875 0.14475000000000005 Q 7.912354980468749 0.21450000000000002 7.87035498046875 0.3127500000000001 Q 7.82835498046875 0.41100000000000003 7.82835498046875 0.5325000000000001 Q 7.82835498046875 0.6375000000000001 7.862104980468749 0.7372500000000001 Q 7.89585498046875 0.8370000000000001 7.96635498046875 0.91425 Q 8.03685498046875 0.9915 8.14635498046875 1.03875 Q 8.255854980468749 1.086 8.40735498046875 1.086 Q 8.50335498046875 1.086 8.579104980468749 1.068 Q 8.65485498046875 1.05 8.71110498046875 1.0237500000000002 Q 8.767354980468749 0.9975 8.80485498046875 0.9675 Q 8.84235498046875 0.9375 8.861854980468749 0.915 L 8.816854980468749 0.8745 M 8.965313232421874 0.543 Q 8.965313232421874 0.627 8.997563232421875 0.7222500000000001 Q 9.029813232421875 0.8175000000000001 9.098813232421875 0.8985000000000001 Q 9.167813232421874 0.9795 9.274313232421875 1.03275 Q 9.380813232421875 1.086 9.529313232421874 1.086 Q 9.629813232421874 1.086 9.711563232421874 1.06125 Q 9.793313232421875 1.0365 9.858563232421874 0.9945 Q 9.923813232421875 0.9525 9.971813232421875 0.89775 Q 10.019813232421875 0.8430000000000001 10.050563232421874 0.7822500000000001 Q 10.081313232421875 0.7215 10.097063232421874 0.66 Q 10.112813232421875 0.5985 10.112813232421875 0.543 Q 10.112813232421875 0.4590000000000001 10.078313232421875 0.36375 Q 10.043813232421874 0.26850000000000007 9.971813232421875 0.1875 Q 9.899813232421874 0.10650000000000004 9.789563232421875 0.05325000000000002 Q 9.679313232421874 0 9.529313232421874 0 Q 9.380813232421875 0 9.274313232421875 0.05249999999999999 Q 9.167813232421874 0.1050000000000001 9.098813232421875 0.18525000000000003 Q 9.029813232421875 0.26550000000000007 8.997563232421875 0.36150000000000004 Q 8.965313232421874 0.4575 8.965313232421874 0.543 M 9.112313232421874 0.543 Q 9.112313232421874 0.43800000000000006 9.144563232421875 0.35025000000000006 Q 9.176813232421875 0.26250000000000007 9.233063232421875 0.1995 Q 9.289313232421875 0.13650000000000007 9.365813232421875 0.10125000000000006 Q 9.442313232421874 0.06600000000000006 9.532313232421874 0.06600000000000006 Q 9.620813232421874 0.06600000000000006 9.699563232421875 0.10125000000000006 Q 9.778313232421874 0.13650000000000007 9.837563232421875 0.1995 Q 9.896813232421874 0.26250000000000007 9.931313232421875 0.35025000000000006 Q 9.965813232421874 0.43800000000000006 9.965813232421874 0.543 Q 9.965813232421874 0.6480000000000001 9.931313232421875 0.7357500000000001 Q 9.896813232421874 0.8235000000000001 9.837563232421875 0.8865000000000001 Q 9.778313232421874 0.9495 9.699563232421875 0.98475 Q 9.620813232421874 1.02 9.532313232421874 1.02 Q 9.442313232421874 1.02 9.365813232421875 0.98475 Q 9.289313232421875 0.9495 9.233063232421875 0.8865000000000001 Q 9.176813232421875 0.8235000000000001 9.144563232421875 0.7357500000000001 Q 9.112313232421874 0.6480000000000001 9.112313232421874 0.543 M 10.381298583984375 1.068 L 10.381298583984375 0.018000000000000016 L 10.726298583984374 0.018000000000000016 Q 10.850798583984375 0.018000000000000016 10.954298583984375 0.05774999999999997 Q 11.057798583984374 0.09750000000000003 11.132048583984375 0.16725 Q 11.206298583984374 0.237 11.247548583984374 0.3330000000000001 Q 11.288798583984374 0.42900000000000005 11.288798583984374 0.54 Q 11.288798583984374 0.6555 11.246048583984374 0.7522500000000001 Q 11.203298583984374 0.8490000000000001 11.129048583984375 0.9195000000000001 Q 11.054798583984375 0.9900000000000001 10.955798583984375 1.0290000000000001 Q 10.856798583984375 1.068 10.744298583984374 1.068 L 10.381298583984375 1.068 M 10.517798583984375 1.002 L 10.682798583984374 1.002 Q 10.805798583984375 1.002 10.892048583984375 0.9607500000000001 Q 10.978298583984374 0.9195000000000001 11.033798583984375 0.8535 Q 11.089298583984375 0.7875000000000001 11.114798583984374 0.7057500000000001 Q 11.140298583984375 0.6240000000000001 11.140298583984375 0.543 Q 11.140298583984375 0.45300000000000007 11.110298583984374 0.36975 Q 11.080298583984375 0.2865000000000001 11.022548583984374 0.22275 Q 10.964798583984374 0.15900000000000003 10.879298583984374 0.12150000000000005 Q 10.793798583984374 0.08400000000000007 10.682798583984374 0.08400000000000007 L 10.517798583984375 0.08400000000000007 L 10.517798583984375 1.002 M 11.512320556640624 0.018000000000000016 L 11.512320556640624 1.068 L 12.190320556640625 1.068 L 12.190320556640625 0.9855 L 11.648820556640624 0.9855 L 11.648820556640624 0.546 L 12.113820556640624 0.546 L 12.113820556640624 0.4770000000000001 L 11.648820556640624 0.4770000000000001 L 11.648820556640624 0.10050000000000003 L 12.190320556640625 0.10050000000000003 L 12.190320556640625 0.018000000000000016 L 11.512320556640624 0.018000000000000016" fill="#173054" fill-rule="nonzero"></path></g><g><path d=" M 3.806559997558593 1.5577874999999999 Q 3.840309997558593 1.4966624999999998 3.898809997558593 1.4625374999999998 Q 3.957309997558593 1.4284124999999999 4.0293099975585935 1.4284124999999999 Q 4.117059997558593 1.4284124999999999 4.179684997558593 1.4700374999999997 Q 4.242309997558593 1.5116624999999997 4.270809997558593 1.5874124999999997 L 4.209309997558593 1.5874124999999997 Q 4.186809997558593 1.5341624999999999 4.140684997558593 1.5041624999999996 Q 4.094559997558593 1.4741624999999998 4.0293099975585935 1.4741624999999998 Q 3.971559997558593 1.4741624999999998 3.925434997558593 1.5011624999999997 Q 3.879309997558593 1.5281624999999996 3.853059997558593 1.5787874999999998 Q 3.826809997558593 1.6294124999999997 3.826809997558593 1.6961624999999998 Q 3.826809997558593 1.7629124999999997 3.853059997558593 1.8131624999999998 Q 3.879309997558593 1.8634124999999997 3.925434997558593 1.8904124999999998 Q 3.971559997558593 1.9174124999999997 4.0293099975585935 1.9174124999999997 Q 4.094559997558593 1.9174124999999997 4.140684997558593 1.8877874999999997 Q 4.186809997558593 1.8581624999999997 4.209309997558593 1.8056624999999997 L 4.270809997558593 1.8056624999999997 Q 4.242309997558593 1.8806624999999997 4.179309997558593 1.9219124999999997 Q 4.116309997558593 1.9631624999999997 4.0293099975585935 1.9631624999999997 Q 3.957309997558593 1.9631624999999997 3.898809997558593 1.9290374999999997 Q 3.840309997558593 1.8949124999999998 3.806559997558593 1.8341624999999997 Q 3.772809997558593 1.7734124999999998 3.772809997558593 1.6961624999999998 Q 3.772809997558593 1.6189124999999998 3.806559997558593 1.5577874999999999 M 4.655932067871094 1.9586624999999998 L 4.526182067871093 1.7396624999999997 L 4.429432067871093 1.7396624999999997 L 4.429432067871093 1.9586624999999998 L 4.376932067871093 1.9586624999999998 L 4.376932067871093 1.4344124999999996 L 4.534432067871093 1.4344124999999996 Q 4.622182067871093 1.4344124999999996 4.667557067871093 1.4764124999999997 Q 4.712932067871093 1.5184124999999997 4.712932067871093 1.5866624999999996 Q 4.712932067871093 1.6436624999999998 4.680307067871093 1.6837874999999998 Q 4.647682067871093 1.7239124999999997 4.5839320678710935 1.7359124999999997 L 4.718932067871093 1.9586624999999998 L 4.655932067871094 1.9586624999999998 M 4.429432067871093 1.6969124999999998 L 4.5351820678710935 1.6969124999999998 Q 4.596682067871093 1.6969124999999998 4.627807067871093 1.6669124999999998 Q 4.658932067871093 1.6369124999999998 4.658932067871093 1.5866624999999996 Q 4.658932067871093 1.5349124999999997 4.6289320678710935 1.5067874999999997 Q 4.598932067871093 1.4786624999999998 4.534432067871093 1.4786624999999998 L 4.429432067871093 1.4786624999999998 L 4.429432067871093 1.6969124999999998 M 5.12278839111328 1.8341624999999997 L 4.884288391113281 1.8341624999999997 L 4.838538391113281 1.9586624999999998 L 4.783038391113281 1.9586624999999998 L 4.974288391113281 1.4411625 L 5.0335383911132805 1.4411625 L 5.224038391113281 1.9586624999999998 L 5.168538391113281 1.9586624999999998 L 5.12278839111328 1.8341624999999997 M 5.107038391113281 1.7906624999999998 L 5.003538391113281 1.5071624999999997 L 4.900038391113281 1.7906624999999998 L 5.107038391113281 1.7906624999999998 M 5.5933965454101555 1.4344124999999996 L 5.5933965454101555 1.4779124999999997 L 5.362396545410156 1.4779124999999997 L 5.362396545410156 1.6736624999999998 L 5.557396545410156 1.6736624999999998 L 5.557396545410156 1.7171624999999997 L 5.362396545410156 1.7171624999999997 L 5.362396545410156 1.9586624999999998 L 5.309896545410155 1.9586624999999998 L 5.309896545410155 1.4344124999999996 L 5.5933965454101555 1.4344124999999996 M 5.988257263183593 1.4344124999999996 L 5.988257263183593 1.4779124999999997 L 5.842757263183594 1.4779124999999997 L 5.842757263183594 1.9586624999999998 L 5.790257263183594 1.9586624999999998 L 5.790257263183594 1.4779124999999997 L 5.644007263183593 1.4779124999999997 L 5.644007263183593 1.4344124999999996 L 5.988257263183593 1.4344124999999996 M 6.125896911621093 1.4771624999999997 L 6.125896911621093 1.6729124999999998 L 6.324646911621094 1.6729124999999998 L 6.324646911621094 1.7164124999999997 L 6.125896911621093 1.7164124999999997 L 6.125896911621093 1.9151624999999997 L 6.347146911621094 1.9151624999999997 L 6.347146911621094 1.9586624999999998 L 6.073396911621093 1.9586624999999998 L 6.073396911621093 1.4336624999999996 L 6.347146911621094 1.4336624999999996 L 6.347146911621094 1.4771624999999997 L 6.125896911621093 1.4771624999999997 M 6.7315149536132814 1.9586624999999998 L 6.601764953613281 1.7396624999999997 L 6.505014953613281 1.7396624999999997 L 6.505014953613281 1.9586624999999998 L 6.452514953613281 1.9586624999999998 L 6.452514953613281 1.4344124999999996 L 6.610014953613281 1.4344124999999996 Q 6.697764953613281 1.4344124999999996 6.743139953613281 1.4764124999999997 Q 6.788514953613281 1.5184124999999997 6.788514953613281 1.5866624999999996 Q 6.788514953613281 1.6436624999999998 6.755889953613281 1.6837874999999998 Q 6.723264953613281 1.7239124999999997 6.659514953613281 1.7359124999999997 L 6.794514953613281 1.9586624999999998 L 6.7315149536132814 1.9586624999999998 M 6.505014953613281 1.6969124999999998 L 6.610764953613281 1.6969124999999998 Q 6.672264953613281 1.6969124999999998 6.703389953613281 1.6669124999999998 Q 6.734514953613281 1.6369124999999998 6.734514953613281 1.5866624999999996 Q 6.734514953613281 1.5349124999999997 6.704514953613281 1.5067874999999997 Q 6.674514953613281 1.4786624999999998 6.610014953613281 1.4786624999999998 L 6.505014953613281 1.4786624999999998 L 6.505014953613281 1.6969124999999998 M 7.491236389160156 1.4344124999999996 L 7.491236389160156 1.9586624999999998 L 7.438736389160156 1.9586624999999998 L 7.438736389160156 1.7134124999999998 L 7.154486389160156 1.7134124999999998 L 7.154486389160156 1.9586624999999998 L 7.101986389160156 1.9586624999999998 L 7.101986389160156 1.4344124999999996 L 7.154486389160156 1.4344124999999996 L 7.154486389160156 1.6699124999999997 L 7.438736389160156 1.6699124999999997 L 7.438736389160156 1.4344124999999996 L 7.491236389160156 1.4344124999999996 M 7.6633734741210935 1.4344124999999996 L 7.6633734741210935 1.7644124999999997 Q 7.6633734741210935 1.8424124999999998 7.700498474121094 1.8799124999999997 Q 7.737623474121094 1.9174124999999997 7.802123474121093 1.9174124999999997 Q 7.866623474121094 1.9174124999999997 7.902998474121094 1.8802874999999997 Q 7.939373474121094 1.8431624999999998 7.939373474121094 1.7644124999999997 L 7.939373474121094 1.4344124999999996 L 7.9918734741210935 1.4344124999999996 L 7.9918734741210935 1.7636624999999997 Q 7.9918734741210935 1.8634124999999997 7.938998474121094 1.9136624999999998 Q 7.886123474121094 1.9639124999999997 7.801373474121093 1.9639124999999997 Q 7.716623474121094 1.9639124999999997 7.6637484741210935 1.9136624999999998 Q 7.610873474121094 1.8634124999999997 7.610873474121094 1.7636624999999997 L 7.610873474121094 1.4344124999999996 L 7.6633734741210935 1.4344124999999996 M 8.431006530761719 1.7329124999999999 Q 8.461756530761718 1.7696624999999997 8.461756530761718 1.8184124999999998 Q 8.461756530761718 1.8581624999999997 8.44188153076172 1.8900374999999998 Q 8.422006530761719 1.9219124999999997 8.383756530761719 1.9402874999999997 Q 8.34550653076172 1.9586624999999998 8.292256530761719 1.9586624999999998 L 8.11075653076172 1.9586624999999998 L 8.11075653076172 1.4344124999999996 L 8.287006530761719 1.4344124999999996 Q 8.366506530761718 1.4344124999999996 8.408131530761718 1.4711624999999997 Q 8.449756530761718 1.5079124999999998 8.449756530761718 1.5664124999999998 Q 8.449756530761718 1.6151624999999998 8.423506530761719 1.6455374999999997 Q 8.39725653076172 1.6759124999999997 8.356006530761718 1.6879124999999997 Q 8.40025653076172 1.6961624999999998 8.431006530761719 1.7329124999999999 M 8.16325653076172 1.6661624999999998 L 8.285506530761719 1.6661624999999998 Q 8.338756530761719 1.6661624999999998 8.367631530761718 1.6410374999999997 Q 8.39650653076172 1.6159124999999999 8.39650653076172 1.5716624999999997 Q 8.39650653076172 1.5281624999999996 8.367631530761718 1.5034124999999998 Q 8.338756530761719 1.4786624999999998 8.283256530761719 1.4786624999999998 L 8.16325653076172 1.4786624999999998 L 8.16325653076172 1.6661624999999998 M 8.377381530761719 1.8874124999999997 Q 8.409256530761718 1.8604124999999998 8.409256530761718 1.8131624999999998 Q 8.409256530761718 1.7659124999999998 8.375881530761719 1.7377874999999998 Q 8.34250653076172 1.7096624999999999 8.286256530761719 1.7096624999999999 L 8.16325653076172 1.7096624999999999 L 8.16325653076172 1.9144124999999999 L 8.288506530761719 1.9144124999999999 Q 8.34550653076172 1.9144124999999999 8.377381530761719 1.8874124999999997" fill="#225777" fill-rule="nonzero"></path></g><g clip-path="url(#SvgjsClipPath1009)"><g clip-path="url(#SvgjsClipPath1008babe5ef6-62dd-4389-a793-61a15c437aeb)"><path d=" M 0.9414513239280412 -9.14030706378552 C 0.6938515285199407 -9.571524026644703 0.8405747879324714 -10.121736249441685 1.2700121023863806 -10.372409983004335 C 1.7013334552956199 -10.619210910588427 2.250952982402132 -10.472645703360024 2.5021150216051993 -10.043849204545985 L 4.943047804902027 -5.827319214330492 C 5.11006660267518 -5.544384495082793 5.11006660267518 -5.193021760381964 4.943047804902027 -4.910087041134265 L 2.507591034579508 -0.7058780801109599 C 2.256950642572929 -0.27340054096235455 1.7031741431567868 -0.12599240802424383 1.27069660400818 -0.37663280003082455 C 0.8382190648595692 -0.6272731920374053 0.6908109319214624 -1.181049691453543 0.9414513239280412 -1.613527230602152 L 3.122273490945337 -5.374179140706684 Z" fill="#3a868f" transform="matrix(1,0,0,1,0,0)" fill-rule="evenodd"></path></g><g clip-path="url(#SvgjsClipPath1008babe5ef6-62dd-4389-a793-61a15c437aeb)"><path d=" M 4.116169845781846 -9.14030706378552 C 3.8688020392014746 -9.571881059159857 4.016165839105162 -10.122202303613461 4.446099627483776 -10.372409983004335 C 4.877316590342949 -10.620009778412424 5.427528813139932 -10.473286518999895 5.678202546702583 -10.043849204545984 L 8.115028320268683 -5.823212204599763 C 8.281460737815493 -5.540117605548866 8.281460737815493 -5.1890746304544315 8.115028320268683 -4.9059800314035344 L 5.68230955643332 -0.7058780801109599 C 5.431669164426737 -0.27340054096235455 4.877892665010599 -0.12599240802424383 4.445415125861988 -0.37663280003082455 C 4.012937586713381 -0.6272731920374053 3.8655294537752747 -1.181049691453543 4.116169845781849 -1.613527230602152 L 6.290146996581265 -5.374179140706684 Z" fill="#225777" transform="matrix(1,0,0,1,0,0)" fill-rule="evenodd"></path></g><g clip-path="url(#SvgjsClipPath1008babe5ef6-62dd-4389-a793-61a15c437aeb)"><path d=" M 7.290888367635654 -9.14030706378552 C 7.043520561055275 -9.571881059159857 7.190884360958963 -10.122202303613461 7.620818149337581 -10.372409983004335 C 8.052035112196759 -10.620009778412424 8.60224733499374 -10.473286518999895 8.852921068556391 -10.043849204545984 L 11.289746842122483 -5.823212204599763 C 11.456179259669295 -5.540117605548866 11.456179259669295 -5.1890746304544315 11.289746842122483 -4.9059800314035344 L 8.857028078287122 -0.7058780801109599 C 8.606387686280545 -0.27340054096235455 8.052611186864407 -0.12599240802424383 7.620133647715793 -0.37663280003082455 C 7.187656108567186 -0.6272731920374053 7.040247975629072 -1.181049691453543 7.290888367635654 -1.613527230602152 L 9.46623452167865 -5.374179140706684 Z" fill="#173054" transform="matrix(1,0,0,1,0,0)" fill-rule="evenodd"></path></g></g></g><defs><clipPath id="SvgjsClipPath1009"><path d=" M 0.8196100352497302 -10.499727284656945 h 10.596085105281789 v 10.249727284656945 h -10.596085105281789 Z"></path></clipPath><clipPath id="SvgjsClipPath1008babe5ef6-62dd-4389-a793-61a15c437aeb"><path d=" M 0.8196100352497302 -10.499727284656945 L 11.415695140531518 -10.499727284656945 L 11.415695140531518 -0.25 L 0.8196100352497302 -0.25 Z"></path></clipPath></defs></svg>